<?xml version="1.0" encoding="utf-8"?>
<!-- Generator: Adobe Illustrator 24.3.0, SVG Export Plug-In . SVG Version: 6.00 Build 0)  -->
<svg version="1.1" id="Layer_1" xmlns="http://www.w3.org/2000/svg" xmlns:xlink="http://www.w3.org/1999/xlink" x="0px" y="0px"
	 viewBox="0 0 612 792" style="enable-background:new 0 0 612 792;" xml:space="preserve">
<style type="text/css">
	.st0{fill-rule:evenodd;clip-rule:evenodd;fill:#FFFFFF;}
</style>
<path class="st0" d="M301.5,392.8c-0.4-0.3-0.8-0.5-1.2-0.8c-1.4-1.1-1.6-3.2-0.4-4.5c1.3-1.5,4.2-1.8,5.8-0.7
	c0.8,0.5,1.1,1.3,1,2.3c-0.1,0.8-0.6,1.4-1.5,1.6c0.1-0.1,0.2-0.2,0.3-0.3c1.3-0.9,1.3-2.6-0.1-3.4c-1.1-0.7-2.9-0.8-4.2-0.1
	c-1.2,0.6-1.8,1.9-1.6,3.2c0.2,1.4,1.3,2.3,2.7,2.6c0.1,0,0.8,0.1,1,0.2c-1.7,0.2-4.1,1.1-5,2.1c-1.1,1.2-1.7,2.9-1.5,4.6
	c0.3,2.9,2.2,4.8,4.8,5.3c2.8,0.5,6.5-0.9,7.7-3.2c1.1-2.1,0.8-4.9-0.8-6.4c-1.3,1.4-2.6,2.9-4.7,3c-1.1,0.1-2.1-0.2-3-0.9
	c0.2,0.1,0.4,0.1,0.5,0.2c1.8,0.7,3.8,0.4,4.9-0.5c0.9-0.8,1.4-1.5,2.3-2.3c0.9-0.9,2.2-2.6,3.3-3.2c1.1-0.6,2.8-0.8,3.8,0.2
	c-3.5-1.4-5,1.2-6.9,3.2c0.9,1.2,1.5,2.5,1.5,4c0,3.1-1.9,5.4-5.1,6.2c-1.6,0.4-3.3,0.3-4.8-0.3c-2.5-0.9-4-2.9-4.1-5.5
	c-0.1-2.6,1.3-4.8,3.7-5.9C300.4,393.2,301,393,301.5,392.8z"/>
</svg>
